<svg viewBox="0 0 64 64" xmlns="http://www.w3.org/2000/svg"><path d="m55 9v14h-10l-4 3v-3h-6v-14z" fill="#fff"/><path d="m35 1h20v8h-20z" fill="#73c6b2"/><path d="m38 12h14v8h-14z" fill="#dfe1ea"/><path d="m27 28a2 2 0 0 1 0 4h-1v-4z" fill="#ffcdbe"/><path d="m12 29v-6c0-6 5-6 5-6h5c7 0 7 8 7 8h-11c0 3-6 4-6 4z" fill="#b46e5a"/><path d="m12 29v3h-1a2 2 0 0 1 0-4h1z" fill="#ffcdbe"/><path d="m16 38.33a6.592 6.592 0 0 1 -2-1.33c-2-2-2-3-2-3v-5s6-1 6-4h8v9s0 1-2 3a6.592 6.592 0 0 1 -2 1.33 8.459 8.459 0 0 1 -3 .67 8.459 8.459 0 0 1 -3-.67z" fill="#ffcdbe"/><path d="m22 41v1a3 3 0 0 1 -6 0v-3.67a8.459 8.459 0 0 0 3 .67 8.459 8.459 0 0 0 3-.67z" fill="#ffbeaa"/><path d="m19 45a2.938 2.938 0 0 0 3-3l3 3s-2 4-6 4z" fill="#f2f6fc"/><path d="m19 45v4c-4 0-6-4-6-4l3-3a2.938 2.938 0 0 0 3 3z" fill="#f2f6fc"/><path d="m13 45s2 4 6 4 6-4 6-4l-3-3v-1h5s5 0 5 5v17h-26v-17c0-5 5-5 5-5h5v1z" fill="#bec3d2"/><path d="m26 25h-8c0 3-6 4-6 4v.168a31.293 31.293 0 0 1 3.394-.168c5.655 0 7.106 1.106 10.606 1.673z" fill="#ffbeaa"/><path d="m12 28v1s6-1 6-4h-6z" fill="#915041"/><path d="m11 41s-5 0-5 5v17h6v-22z" fill="#7e8596"/><path d="m27 41h-1v22h6v-17c0-5-5-5-5-5z" fill="#7e8596"/><path d="m44 55 1 8h-10l1-8z" fill="#afb4c8"/><circle cx="40" cy="43" fill="#afb4c8" r="2"/><path d="m58 29v26h-36v-26zm-16 14a2 2 0 1 0 -2 2 2.006 2.006 0 0 0 2-2z" fill="#dce1eb"/><path d="m22 33.694a25.327 25.327 0 0 1 6.394-.694c7.6 0 7.6 2 15.2 2 7.318 0 7.611-1.849 14.405-1.987v-4.013h-35.999z" fill="#f6fafd"/><path d="m36 55-.373 2.984c.314.008.625.016.968.016a25.913 25.913 0 0 0 7.654-1.008l-.249-1.992z" fill="#7e8596"/><path d="m38 4h2v2h-2z" fill="#fff"/><path d="m42 4h2v2h-2z" fill="#fff"/><path d="m58 28h-31v-2h2a1 1 0 0 0 1-1c0-3.113-1.672-9-8-9h-5c-2.075 0-6 1.463-6 7v4a3 3 0 0 0 0 6v1c0 .332.165 1.579 2.293 3.707a7.034 7.034 0 0 0 1.707 1.231v1.062h-4a5.785 5.785 0 0 0 -6 6v17a1 1 0 0 0 1 1h24v-2h-3v-6h7.867l-.75 6h-2.117v2h16v-2h-2.117l-.75-6h12.867a1 1 0 0 0 1-1v-26a1 1 0 0 0 -1-1zm-48 2a1 1 0 0 1 1-1v2a1 1 0 0 1 -1-1zm3-7c0-4.809 3.6-5 4-5h5c4.59 0 5.669 4.06 5.922 6h-9.922a1 1 0 0 0 -1 1c0 1.3-2.243 2.272-4 2.752zm0 10.995v-4.179c1.652-.385 5.07-1.456 5.843-3.816h6.157v2h-3a1 1 0 0 0 -1 1v8.624a7.106 7.106 0 0 1 -2 .376 6.8 6.8 0 0 1 -4.293-1.707 6.466 6.466 0 0 1 -1.707-2.298zm6 6.005a8.542 8.542 0 0 0 2-.3v2.3a1.883 1.883 0 0 1 -2 2 1.883 1.883 0 0 1 -2-2v-2.291a8.515 8.515 0 0 0 2 .291zm-3.523 3.937a3.633 3.633 0 0 0 2.523 1.963v2a6.475 6.475 0 0 1 -3.736-2.744zm9.523 18.063h-12v-12h-2v12h-4v-16a3.85 3.85 0 0 1 4-4h3.586l-2.293 2.293a1 1 0 0 0 -.188 1.154c.086.172 2 3.9 5.9 4.473v9.08h2v-13.1a3.7 3.7 0 0 0 1-.383v9.483a1 1 0 0 0 1 1h3zm11.133 0 .75-6h6.234l.75 6zm20.867-8h-34v-24h34z"/><path d="m40 46a3 3 0 1 0 -3-3 3 3 0 0 0 3 3zm0-4a1 1 0 1 1 -1 1 1 1 0 0 1 1-1z"/><path d="m42.293 12.293-3 3a1 1 0 0 0 0 1.414l3 3 1.414-1.414-2.293-2.293 2.293-2.293z"/><path d="m47.707 12.293-1.414 1.414 2.293 2.293-2.293 2.293 1.414 1.414 3-3a1 1 0 0 0 0-1.414z"/><path d="m35 24h5v2a1 1 0 0 0 1.6.8l3.733-2.8h9.667a1 1 0 0 0 1-1v-22a1 1 0 0 0 -1-1h-20a1 1 0 0 0 -1 1v22a1 1 0 0 0 1 1zm10-2a1 1 0 0 0 -.6.2l-2.4 1.8v-1a1 1 0 0 0 -1-1h-5v-12h18v12zm9-20v6h-18v-6z"/><path d="m29.772 13.635a1 1 0 0 0 .208-.829c-.162-.827-.3-2.773.31-3.516a.811.811 0 0 1 .71-.29 1 1 0 0 0 1-1v-2a1 1 0 0 0 -1-1 .811.811 0 0 1 -.71-.29c-.61-.743-.472-2.689-.31-3.516a1 1 0 0 0 -.98-1.194h-2v2h.865a5.866 5.866 0 0 0 .877 3.977 2.717 2.717 0 0 0 1.258.869v.308a2.717 2.717 0 0 0 -1.258.869 5.866 5.866 0 0 0 -.877 3.977h-.865v2h2a1 1 0 0 0 .772-.365z"/><path d="m19 6h2v2h-2z"/><path d="m15 6h2v2h-2z"/><path d="m23 6h2v2h-2z"/><path d="m9 9a.811.811 0 0 1 .71.29c.61.743.472 2.689.31 3.516a1 1 0 0 0 .98 1.194h2v-2h-.865a5.866 5.866 0 0 0 -.877-3.977 2.717 2.717 0 0 0 -1.258-.869v-.308a2.717 2.717 0 0 0 1.258-.869 5.866 5.866 0 0 0 .877-3.977h.865v-2h-2a1 1 0 0 0 -.98 1.194c.162.827.3 2.773-.31 3.516a.811.811 0 0 1 -.71.29 1 1 0 0 0 -1 1v2a1 1 0 0 0 1 1z"/></svg>